<svg id="visual" viewBox="0 0 900 600" width="900" height="600" xmlns="http://www.w3.org/2000/svg" xmlns:xlink="http://www.w3.org/1999/xlink" version="1.1"><g transform="translate(411.65826965218594 319.6848355254839)"><path d="M113 -141.6C170.8 -113.4 259 -113.1 301.2 -76C343.3 -38.8 339.5 35.1 303.4 83.9C267.3 132.6 198.9 156.1 142.9 175.9C87 195.7 43.5 211.9 -11 227C-65.4 242.1 -130.9 256.1 -176.5 233C-222.2 209.8 -248 149.4 -253.7 91.9C-259.3 34.4 -244.7 -20.2 -235.8 -85.6C-226.9 -151 -223.7 -227.2 -185.3 -261.7C-146.9 -296.3 -73.5 -289.1 -23 -257.5C27.6 -225.9 55.1 -169.9 113 -141.6" fill="#da652f"></path></g></svg>