<svg id="visual" viewBox="0 0 900 600" width="900" height="600" xmlns="http://www.w3.org/2000/svg" xmlns:xlink="http://www.w3.org/1999/xlink" version="1.1"><path d="M0 358L129 406L257 402L386 351L514 374L643 360L771 423L900 351L900 601L771 601L643 601L514 601L386 601L257 601L129 601L0 601Z" fill="#871400"></path><path d="M0 420L129 430L257 476L386 408L514 440L643 476L771 475L900 454L900 601L771 601L643 601L514 601L386 601L257 601L129 601L0 601Z" fill="#a23d1f"></path><path d="M0 445L129 464L257 455L386 500L514 489L643 474L771 486L900 437L900 601L771 601L643 601L514 601L386 601L257 601L129 601L0 601Z" fill="#bc603e"></path><path d="M0 507L129 536L257 499L386 528L514 523L643 488L771 490L900 526L900 601L771 601L643 601L514 601L386 601L257 601L129 601L0 601Z" fill="#d5825f"></path><path d="M0 528L129 535L257 553L386 571L514 546L643 536L771 572L900 565L900 601L771 601L643 601L514 601L386 601L257 601L129 601L0 601Z" fill="#eea482"></path></svg>